<?xml version="1.0" encoding="UTF-8"?><svg id="Layer_1" xmlns="http://www.w3.org/2000/svg" viewBox="0 0 116.35 54"><defs><style>.cls-1,.cls-2{fill:#fff;}.cls-3{letter-spacing:.04em;}.cls-2{font-family:Impact, Impact;font-size:10.3px;}.cls-4{letter-spacing:.06em;}</style></defs><path class="cls-1" d="M75.37,35.07c-26.65,0-53.62-6.02-53.62-17.53S48.73,0,75.37,0v5.29c-13.37,0-25.91,1.51-35.3,4.25-9.62,2.81-13.03,6.06-13.03,7.99,0,2.08,4.03,5.36,13.03,7.99,9.4,2.74,21.93,4.26,35.3,4.26v5.29Z"/><path class="cls-1" d="M65.67,27.62h-2.6l-.11-6.29V7.41l2.69.04c12.13.18,24.36,3.4,24.36,10.17s-12.61,9.99-24.33,9.99ZM68.25,21.3l.02.97c4.29-.18,8.28-.81,11.44-1.81,3.87-1.23,4.92-2.53,5.01-2.84-.09-.31-1.14-1.61-5.03-2.87-3.13-1.01-7.12-1.68-11.43-1.92v8.46Z"/><text class="cls-2" transform="translate(0 50.6) scale(1.21 1)"><tspan class="cls-3" x="0" y="0">Corporate Dictiona</tspan><tspan class="cls-4" x="87.4" y="0">r</tspan><tspan class="cls-3" x="91.7" y="0">y</tspan></text></svg>